<svg xmlns="http://www.w3.org/2000/svg" viewBox="0 0 141.73 141.73"><defs><style>.cls-1{fill:#a57546;}.cls-2{fill:#986a40;}.cls-3{fill:#725030;}</style></defs><g id="Calque_2" data-name="Calque 2"><g id="Calque_1-2" data-name="Calque 1"><path class="cls-1" d="M113.39,0h-85A28.35,28.35,0,0,0,0,28.35v85a28.34,28.34,0,0,0,28.34,28.34h85.05a28.34,28.34,0,0,0,28.34-28.34v-85A28.34,28.34,0,0,0,113.39,0Z"/><path class="cls-2" d="M133.43,133.43a28.26,28.26,0,0,0,8.3-20v-85a28.26,28.26,0,0,0-8.3-20L70.87,70.87Z"/><path class="cls-3" d="M70.87,70.87,8.3,133.43a28.26,28.26,0,0,0,20.05,8.3h85a28.26,28.26,0,0,0,20-8.3Z"/><path class="cls-2" d="M8.3,8.3A28.26,28.26,0,0,0,0,28.35v85a28.26,28.26,0,0,0,8.3,20L70.87,70.87Z"/></g></g></svg>