<svg xmlns="http://www.w3.org/2000/svg" viewBox="0 0 141.73 141.73"><defs><style>.cls-1{fill:#a57546;}.cls-2{fill:#725030;}.cls-3{fill:#986a40;}</style></defs><g id="Calque_2" data-name="Calque 2"><g id="Calque_1-2" data-name="Calque 1"><path class="cls-1" d="M0,0V141.73H141.73V0ZM120.47,120.47H21.26V21.26h99.21Z"/><polygon class="cls-2" points="120.47 120.47 120.47 120.47 21.26 120.47 21.26 120.47 0 141.73 0 141.73 141.73 141.73 141.73 141.73 120.47 120.47"/><polygon class="cls-3" points="141.73 0 120.47 21.26 120.47 120.47 120.47 120.47 141.73 141.73 141.73 141.73 141.73 0 141.73 0"/><polygon class="cls-3" points="21.26 120.47 21.26 21.26 0 0 0 0 0 141.73 0 141.73 21.26 120.47 21.26 120.47"/></g></g></svg>