<svg xmlns="http://www.w3.org/2000/svg" viewBox="0 0 141.73 141.73"><defs><style>.cls-1{fill:#a57546;}.cls-2{fill:#986a40;}.cls-3{fill:#725030;}</style></defs><g id="Calque_2" data-name="Calque 2"><g id="Calque_1-2" data-name="Calque 1"><path class="cls-1" d="M0,0V141.73H141.73V0ZM70.87,120.47a49.61,49.61,0,1,1,49.6-49.6A49.61,49.61,0,0,1,70.87,120.47Z"/><path class="cls-2" d="M141.73,0,105.94,35.79a49.6,49.6,0,0,1,0,70.15l35.79,35.79h0V0Z"/><path class="cls-2" d="M21.26,70.87A49.45,49.45,0,0,1,35.79,35.79L0,0H0V141.73H0l35.79-35.79A49.43,49.43,0,0,1,21.26,70.87Z"/><path class="cls-3" d="M105.94,105.94a49.6,49.6,0,0,1-70.15,0L0,141.73H141.73Z"/></g></g></svg>